nColumns=19
nRows=28
DataType=double
version=3
OpenSimVersion=4.1
endheader
time	ground_force_calcn_l_vx	ground_force_calcn_l_vy	ground_force_calcn_l_vz	ground_force_calcn_l_px	ground_force_calcn_l_py	ground_force_calcn_l_pz	ground_force_calcn_l_mx	ground_force_calcn_l_my	ground_force_calcn_l_mz	ground_force_calcn_r_vx	ground_force_calcn_r_vy	ground_force_calcn_r_vz	ground_force_calcn_r_px	ground_force_calcn_r_py	ground_force_calcn_r_pz	ground_force_calcn_r_mx	ground_force_calcn_r_my	ground_force_calcn_r_mz
3.1125	-14.2109	343.378	-49.4486	-0.274783	-3.00255e-17	0.186291	0.428046	-10.3429	1.48944	-1.33452	372.358	50.7582	-0.260419	-2.85072e-17	-0.187855	-0.0357186	9.96622	1.35855
3.12248	-13.8821	340.806	-49.7648	-0.275093	-3.00491e-17	0.186702	0.421549	-10.3491	1.51118	-1.37688	372.783	51.1531	-0.260187	-2.84834e-17	-0.187742	-0.0364381	9.86539	1.35372
3.13245	-13.7005	337.855	-49.958	-0.275358	-3.00699e-17	0.187052	0.418046	-10.309	1.52438	-1.34465	373.007	51.431	-0.259956	-2.84613e-17	-0.187541	-0.0350987	9.7364	1.34248
3.14243	-13.6603	334.487	-50.0353	-0.2756	-3.00906e-17	0.187318	0.417132	-10.2139	1.52788	-1.28447	372.989	51.5812	-0.259725	-2.8441e-17	-0.187278	-0.0329809	9.5771	1.32443
3.1524	-13.7658	330.705	-50.0028	-0.275837	-3.01128e-17	0.187488	0.419295	-10.073	1.52305	-1.25178	372.677	51.603	-0.259533	-2.84267e-17	-0.186973	-0.0315407	9.39021	1.30022
3.16238	-14.0006	326.546	-49.8646	-0.276097	-3.01389e-17	0.187563	0.424468	-9.90018	1.51179	-1.27165	372.053	51.5008	-0.259412	-2.84223e-17	-0.18661	-0.0312933	9.15562	1.26735
3.17236	-14.311	322.081	-49.6359	-0.276424	-3.01741e-17	0.187558	0.430849	-9.6966	1.49434	-1.36304	371.169	51.2919	-0.259315	-2.84233e-17	-0.186201	-0.0325574	8.86569	1.22515
3.18233	-14.6252	317.403	-49.3177	-0.276858	-3.02233e-17	0.187506	0.435894	-9.45996	1.46988	-1.55243	370.104	50.9941	-0.259213	-2.84252e-17	-0.185791	-0.0358416	8.54473	1.17732
3.19231	-14.8608	312.616	-48.8993	-0.277403	-3.02865e-17	0.187471	0.437655	-9.20659	1.44009	-1.81086	368.953	50.6548	-0.259109	-2.84281e-17	-0.185388	-0.0402447	8.19966	1.12576
3.20228	-14.9496	307.803	-48.3789	-0.278081	-3.03656e-17	0.187522	0.434863	-8.95359	1.40728	-2.07003	367.803	50.3196	-0.259063	-2.84388e-17	-0.184967	-0.0440194	7.82136	1.07005
3.21226	-14.849	303.008	-47.7574	-0.27892	-3.04636e-17	0.187677	0.426619	-8.70554	1.37209	-2.29338	366.812	50.015	-0.259097	-2.84591e-17	-0.184537	-0.0464109	7.42313	1.01215
3.22224	-14.5517	298.244	-47.0499	-0.279929	-3.05813e-17	0.187931	0.413005	-8.46474	1.33537	-2.47562	366.181	49.7522	-0.259218	-2.84896e-17	-0.184131	-0.0475022	7.02628	0.954645
3.23221	-14.0795	293.532	-46.271	-0.281075	-3.07149e-17	0.188282	0.394767	-8.23016	1.29736	-2.59335	366.05	49.5462	-0.259443	-2.85314e-17	-0.183768	-0.0470239	6.63739	0.898395
3.24219	-13.4833	288.876	-45.424	-0.282309	-3.08583e-17	0.188725	0.374017	-8.01319	1.26003	-2.63652	366.465	49.4209	-0.259776	-2.85853e-17	-0.183445	-0.0450131	6.25663	0.843758
3.25216	-12.7942	284.26	-44.513	-0.28363	-3.10114e-17	0.189249	0.351682	-7.81361	1.22355	-2.628	367.364	49.3969	-0.260195	-2.8648e-17	-0.183183	-0.0421504	5.89214	0.792276
3.26214	-12.0324	279.694	-43.5635	-0.285052	-3.11757e-17	0.18984	0.328048	-7.62547	1.1877	-2.59201	368.61	49.4707	-0.260662	-2.87154e-17	-0.183002	-0.0389422	5.53798	0.743246
3.27212	-11.2118	275.199	-42.6184	-0.286548	-3.13481e-17	0.190478	0.303282	-7.44421	1.15284	-2.57129	370.056	49.6238	-0.261158	-2.87856e-17	-0.182919	-0.0360626	5.19007	0.695979
3.28209	-10.3442	270.764	-41.7154	-0.288083	-3.15243e-17	0.191155	0.277794	-7.27138	1.12027	-2.61156	371.548	49.8226	-0.261733	-2.88634e-17	-0.182964	-0.0341622	4.86026	0.651735
3.29207	-9.41687	266.364	-40.8698	-0.289682	-3.17065e-17	0.191886	0.251336	-7.10925	1.09082	-2.70754	372.895	50.0517	-0.262393	-2.89494e-17	-0.183166	-0.0330928	4.55771	0.611757
3.30204	-8.43096	261.954	-40.0704	-0.291426	-3.19035e-17	0.19268	0.224038	-6.96096	1.0648	-2.85402	373.825	50.2953	-0.263191	-2.90494e-17	-0.183529	-0.0326138	4.27182	0.574741
3.31202	-7.42444	257.527	-39.3117	-0.293285	-3.21114e-17	0.193498	0.197004	-6.83334	1.04312	-3.06586	374.056	50.5145	-0.264195	-2.91712e-17	-0.184029	-0.0327799	3.99939	0.540098
3.322	-6.42888	253.106	-38.5857	-0.295157	-3.23197e-17	0.19431	0.170665	-6.71912	1.02432	-3.366	373.378	50.6575	-0.265442	-2.93189e-17	-0.184644	-0.0337505	3.74381	0.507936
3.33197	-5.48124	248.742	-37.8967	-0.296956	-3.252e-17	0.195048	0.145421	-6.59929	1.00543	-3.75804	371.724	50.6794	-0.266868	-2.9486e-17	-0.185335	-0.0353236	3.49402	0.476361
3.34195	-4.64243	244.452	-37.2182	-0.298625	-3.27063e-17	0.195648	0.122949	-6.47401	0.985678	-4.2734	369.064	50.5174	-0.268421	-2.96672e-17	-0.186064	-0.0375357	3.2417	0.443723
3.35192	-3.96601	240.255	-36.5122	-0.300119	-3.28749e-17	0.19606	0.10458	-6.3353	0.962791	-4.97029	365.366	50.1206	-0.270088	-2.98616e-17	-0.186809	-0.0405072	2.97768	0.408476
3.3619	-3.46702	236.221	-35.7367	-0.301435	-3.30267e-17	0.196272	0.0906827	-6.17855	0.934721	-5.8746	360.597	49.4572	-0.27185	-3.00681e-17	-0.187521	-0.0436896	2.68178	0.367815
3.37188	-3.15438	232.446	-34.879	-0.302544	-3.31586e-17	0.196272	0.0815209	-6.00726	0.901401	-6.97667	354.784	48.487	-0.273712	-3.02874e-17	-0.188166	-0.046307	2.35484	0.321828
3.38185	-3.03955	229.09	-33.9528	-0.303401	-3.32663e-17	0.19603	0.077218	-5.8199	0.862552	-8.22734	348.074	47.1888	-0.275669	-3.05184e-17	-0.188718	-0.0475691	2.01251	0.272838
